<svg width="25" height="14" viewBox="0 0 25 14" fill="none" xmlns="http://www.w3.org/2000/svg">
<path fill-rule="evenodd" clip-rule="evenodd" d="M0 1C0 0.447715 0.447716 0 1 0H24C24.5523 0 25 0.447715 25 1C25 1.55228 24.5523 2 24 2H1C0.447715 2 0 1.55228 0 1ZM13.8158 7C13.8158 6.44772 14.2635 6 14.8158 6H24C24.5523 6 25 6.44772 25 7C25 7.55228 24.5523 8 24 8H14.8158C14.2635 8 13.8158 7.55228 13.8158 7ZM25 13C25 12.4477 24.5523 12 24 12H6.92105C6.36877 12 5.92105 12.4477 5.92105 13C5.92105 13.5523 6.36877 14 6.92105 14H24C24.5523 14 25 13.5523 25 13Z" fill="#0E0E0E"/>
</svg>
